<?xml version="1.0" encoding="UTF-8" standalone="no"?>
<!-- Created with Inkscape (http://www.inkscape.org/) -->

<svg
   width="297mm"
   height="210mm"
   viewBox="0 0 297 210"
   version="1.1"
   id="svg1"
   xml:space="preserve"
   inkscape:version="1.4.2 (ebf0e940d0, 2025-05-08)"
   sodipodi:docname="logo.svg"
   xmlns:inkscape="http://www.inkscape.org/namespaces/inkscape"
   xmlns:sodipodi="http://sodipodi.sourceforge.net/DTD/sodipodi-0.dtd"
   xmlns="http://www.w3.org/2000/svg"
   xmlns:svg="http://www.w3.org/2000/svg"><sodipodi:namedview
     id="namedview1"
     pagecolor="#ffffff"
     bordercolor="#ffffff"
     borderopacity="1"
     inkscape:showpageshadow="0"
     inkscape:pageopacity="0"
     inkscape:pagecheckerboard="1"
     inkscape:deskcolor="#d1d1d1"
     inkscape:document-units="mm"
     inkscape:zoom="0.19910564"
     inkscape:cx="562.51546"
     inkscape:cy="399.28553"
     inkscape:window-width="1920"
     inkscape:window-height="1031"
     inkscape:window-x="0"
     inkscape:window-y="0"
     inkscape:window-maximized="0"
     inkscape:current-layer="layer2"
     showgrid="false"><inkscape:page
       x="0"
       y="0"
       width="297"
       height="210"
       id="page3"
       margin="0"
       bleed="0" /></sodipodi:namedview><defs
     id="defs1" /><g
     inkscape:label="Layer 1"
     inkscape:groupmode="layer"
     id="layer1"
     transform="translate(-613.99998)" /><g
     id="g1"
     inkscape:groupmode="layer"
     inkscape:label="1"
     transform="matrix(0.26458334,0,0,0.26458333,306.99999,0)" /><g
     inkscape:groupmode="layer"
     id="layer3"
     inkscape:label="Background"
     sodipodi:insensitive="true"
     transform="translate(-613.99998)"><rect
       style="fill:#ffffff;fill-opacity:1;stroke-width:0.781635;stroke-linecap:round;stroke-linejoin:round"
       id="rect1-2"
       width="297"
       height="210"
       x="614"
       y="2.4159749e-06" /></g><g
     inkscape:groupmode="layer"
     id="layer2"
     inkscape:label="Logo"
     transform="translate(-613.99998)"><g
       id="group-R5"
       transform="matrix(0.02070072,0,0,0.02070072,716.5444,25.419736)"
       style="fill:#56cdba;fill-opacity:1"
       inkscape:export-filename="rebe-for-integrate.png"
       inkscape:export-xdpi="96"
       inkscape:export-ydpi="96"><path
         id="path2-4"
         d="m 27561.9,5145.1 c -3.1,-80.1 -19.3,-157.1 -48.7,-228.1 -112.5,-282.7 -401.3,-483.4 -712.5,-483.4 -86.1,-2.1 -172.3,2 -257.4,10.1 -28.4,3.1 -56.8,6.1 -85.1,11.2 -585.8,82.1 -1125,392.2 -1610.5,720.6 -121.6,88.1 -243.2,174.3 -367.9,257.4 -1579,1067.2 -3372.9,1799 -5222.6,2240.8 -325.3,88.2 -700.3,60.8 -968.9,295 124.7,127.7 272.7,237.1 451,273.6 696.3,173.3 1426,118.6 2132.4,28.4 1945,-254.4 3787.5,-1062.2 5384.8,-2186.1 -644.6,767.2 -1541.6,1263.8 -2451.7,1652 -170.2,78 -370.9,120.6 -492.5,273.6 -288.9,325.4 -626.4,637.5 -1056.1,755.1 -264.5,74 -532.1,147.9 -777.4,273.6 0,0 914.2,1107.8 336.5,2781.1 2117.2,-979.1 3886.8,-2658.4 5087.8,-4651 111.5,-198.6 225,-403.4 325.3,-614.2 174.3,-364.8 310.2,-747.9 332.4,-1148.3 7.1,-86.1 7.1,-173.3 1.1,-261.4 z m -10913.4,2784 c -462.2,103.4 -940.5,78.1 -1410.8,56.8 -201.7,-12.2 -403.4,-27.4 -604,-44.6 -29.4,-2 -58.8,-5.1 -88.2,-8.1 -498.7,-44.6 -997.3,-102.4 -1494.9,-162.2 -251.4,-30.4 -503.7,-61.8 -755.1,-91.2 -764.2,-97.3 -1537.5,-173.3 -2307.74,-93.2 -327.35,38.5 -667.89,104.4 -946.6,290.8 -197.63,128.8 -312.16,382.1 -247.29,613.2 97.29,422.6 435.8,730.8 771.27,976 159.12,110.5 322.29,212.9 488.46,310.2 801.7,468.2 1675.4,810.8 2453.7,1320.5 295,192.6 555.4,433.8 857.5,614.2 553.3,336.5 1171.6,563.5 1809.1,671 -134.8,-1384.5 803.7,-2525.7 803.7,-2525.7 -713.6,-58.8 -1426,-126.7 -2138.5,-206.7 -702.4,-61.9 -1382.4,-318.3 -1975.3,-695.3 1128,211.8 2282.4,392.2 3431.7,255.4 1235.4,-148 2282.4,-950.7 3071.9,-1869.9 152,-158.1 224,-369.9 249.3,-584.8 -716.5,279.7 -1208.1,970.9 -1968.2,1173.6 z m -853.4,5370.6 c 204.7,577.7 671,1059.1 1249.7,1264.8 603,227 1280,159.1 1873.9,-57.7 1011.5,-381.1 1826.4,-1201 2280.4,-2173 331.4,-719.6 467.2,-1559.8 236.2,-2330 -171.3,-585.8 -595,-1101.7 -1157.5,-1348 -629.4,-285.8 -1364.1,-235.1 -2000.6,-3 -1041.9,391.2 -1878,1243.5 -2326,2253 -326.3,744.9 -439.9,1618.6 -156.1,2393.9 z m 4375.3,3990.7 c -0.7,-0.7 -2.4,-2 -3,-2.6 -0.2,4.1 1.1,4 3,2.6 z m 10979.3,-6876.2 c -1804.1,513.9 -3889.9,477.4 -4911.5,416.6 -33.4,-2 -64.8,-5.1 -96.3,-6.1 -22.2,-2 -43.5,-3 -64.8,-5.1 -94.3,-6 -176.4,-12.1 -244.3,-18.2 -7.1,-1 -14.2,-1 -21.3,-2 -32.4,-2.1 -60.8,-5.1 -86.1,-7.1 -10.1,-1 -20.3,-2 -29.4,-3.1 -4,0 -8.1,-1 -13.2,-1 -5,0 -11.1,-1 -16.2,-2 -11.1,-1 -22.3,-2 -30.4,-3 -5.1,0 -10.1,-1.1 -14.2,-1.1 -5,-1 -9.1,-1 -12.1,-1 -1.1,-1 -2.1,-1 -2.1,-1 -3,0 -5,0 -5,0 2529.7,-419.6 4267.8,-1090.5 5017.8,-1418.9 54.7,-24.3 104.4,-46.6 149,-66.9 151,-69.9 238.2,-114.5 261.5,-125.6 4,-2.1 5,-3.1 5,-3.1 -53.7,-37.5 -106.4,-77 -157.1,-117.5 -21.2,-15.3 -41.5,-31.5 -61.8,-47.7 -45.6,-35.5 -90.2,-71.9 -133.8,-109.4 -23.3,-18.3 -67.9,-55.8 -90.2,-74 -31.4,-25.4 -60.8,-50.7 -91.2,-77.1 -76,-64.8 -151,-129.7 -230,-191.5 l -25.4,-20.3 c -64.8,-49.6 -129.7,-99.3 -193.6,-152 -14.1,-11.2 -28.3,-22.3 -42.5,-34.5 -61.8,-47.6 -122.6,-96.3 -186.5,-142.9 -32.4,-22.3 -64.9,-46.6 -96.3,-69.9 -73,-49.7 -144.9,-100.3 -214.8,-153 -54.8,-39.6 -109.5,-80.1 -163.2,-120.6 -68.9,-47.7 -138.9,-94.3 -208.8,-141.9 -31.4,-21.3 -63.8,-42.6 -95.3,-65.9 -24.3,-17.2 -74,-51.7 -98.3,-68.9 -165.2,-113.5 -330.4,-227.1 -503.7,-330.4 l -25.3,-15.2 c -28.4,-16.2 -55.8,-32.5 -84.1,-48.7 -27.4,-17.2 -55.8,-34.4 -83.2,-51.7 -95.2,-58.8 -191.5,-115.5 -289.8,-169.2 -45.6,-24.4 -90.2,-49.7 -135.8,-74 l -28.4,-16.2 c -400.3,860.4 -966.9,1640.8 -1571.9,2368.5 -86.2,102.4 -174.4,202.7 -265.6,299 -846.2,931.4 -1826.3,1740.2 -2908.7,2381.7 -99.3,59.8 -197.7,119.6 -300,174.4 -286.8,172.2 -609.1,276.6 -892.9,452 -191.6,213.8 -272.6,501.7 -439.9,733.7 -717.5,1079.4 -1888.1,1888.2 -3182.4,2064.5 -833.1,119.6 -1707.7,-139.8 -2328,-711.4 -123.6,-108.5 -345.6,-376 -345.6,-376 -273.6,-362.9 -433.8,-791.6 -550.3,-1226.4 -749,-141.9 -1470.6,-424.6 -2111.1,-837.1 -278.7,-179.4 -528.1,-401.4 -805.8,-583.8 -105.4,-64.9 -211.8,-129.7 -321.2,-189.5 -161.2,-87.2 -317.3,-177.4 -478.4,-261.5 -582.8,-305.1 -1202,-570.6 -1763.51,-919.3 -153.03,146 -302.02,297 -444.92,452.1 -31.42,31.4 -59.8,62.8 -89.19,95.2 -99.33,119.6 -206.76,233.1 -308.11,350.7 -45.6,59.8 -91.21,118.6 -135.8,177.4 -86.16,116.5 -175.34,230 -264.52,344.6 -89.19,117.5 -171.29,239.1 -253.38,362.8 -93.25,142.9 -181.42,288.8 -273.65,432.8 -142.91,229 -270.61,468.2 -395.26,708.4 -969.93,1876 -1434.11,3972.9 -1614.51,6065.8 -3.04,163.2 -40.54,329.4 11.15,487.5 0,0 1.01,0 3.04,-1 101.35,-32.5 2332.06,-771.3 4840.46,-2666.5 79.1,-58.8 158.1,-119.6 238.2,-181.5 24.3,-20.2 49.6,-39.5 75,-59.8 54.7,-42.5 109.4,-86.1 164.2,-129.7 30.4,-25.3 61.8,-50.7 92.2,-76 49.7,-39.5 98.3,-79.1 148,-120.6 34.4,-28.4 68.9,-57.8 103.4,-87.2 46.6,-39.5 93.2,-78 139.8,-118.5 -2,-86.2 -4,-171.3 -4,-254.4 -1.1,-1 -1.1,-2.1 0,-3.1 -1.1,-3 -1.1,-8.1 0,-11.1 -1.1,-3.1 -1.1,-6.1 0,-8.1 -4.1,-197.7 -1.1,-388.2 6,-570.6 28.4,-851.4 134.8,-1539.5 246.3,-2045.3 2,-13.1 5.1,-25.3 8.1,-37.5 17.3,-85.1 36.5,-169.2 57.8,-254.4 26.3,-114.5 52.7,-230 82.1,-344.5 23.3,-99.4 48.6,-198.7 77,-298 8.1,-31.4 18.3,-63.9 27.4,-95.3 13.2,10.1 25.3,20.3 39.5,30.4 -33.4,1162.5 19.3,2257.1 135.8,3280.7 675,-638.5 1340.9,-1367.2 1966.2,-2191.2 -1,2.1 -2,4.1 -3,8.1 -38.5,142.9 -461.2,1592.2 -1803,3329.4 84.1,509.8 183.4,997.3 293.9,1465.5 292.9,1242.6 665.8,2337.1 1051,3270.6 2,4 4,9.1 6.1,14.2 5,12.1 10.1,24.3 16.2,36.4 92.2,193.6 176.3,392.3 269.6,584.8 72.9,150 144.9,300 218.9,449 59.8,120.6 118.6,240.2 182.4,357.8 70.9,128.7 137.8,258.4 206.8,388.2 54.7,102.3 115.5,202.7 171.2,306 27.4,50.7 54.8,100.4 81.1,151 311.2,497.7 608.1,1004.4 946.6,1482.8 2.1,2 3.1,4 3.1,4 0,0 2,-3 6,-7 18.3,-22.4 80.1,-93.3 175.4,-210.9 0,-1 1,-2 2,-3 18.3,-23.3 38.5,-47.6 58.8,-74 4,-5 7.1,-9.1 12.2,-14.2 19.2,-25.3 40.5,-51.7 61.8,-79 6.1,-8.1 11.1,-15.2 17.2,-22.3 22.3,-28.4 44.6,-57.8 68.9,-89.2 6.1,-7.1 11.2,-15.2 17.3,-22.3 22.3,-28.4 44.6,-58.8 67.9,-90.2 5,-6.1 11.1,-13.2 16.2,-20.3 25.3,-33.4 51.7,-69.9 79,-105.4 8.1,-12.1 16.2,-23.3 25.4,-34.4 26.3,-36.5 53.7,-74 82.1,-112.5 9.1,-13.2 18.2,-26.4 28.3,-39.6 28.4,-39.5 58.8,-80 88.2,-122.6 8.1,-12.2 18.3,-24.3 26.4,-36.5 25.3,-36.5 51.7,-74 79,-112.5 9.1,-13.2 18.3,-26.3 27.4,-39.5 31.4,-44.6 62.8,-91.2 95.2,-137.8 11.2,-17.3 23.4,-34.5 34.5,-51.7 32.4,-46.6 64.9,-95.3 97.3,-144 12.2,-18.2 23.3,-35.4 35.5,-53.7 32.4,-48.6 63.8,-97.3 97.3,-146.9 11.1,-18.3 22.3,-35.5 34.4,-53.7 29.4,-45.6 59.8,-92.3 90.2,-139.9 11.2,-18.2 23.3,-37.5 35.5,-55.7 34.5,-54.8 71,-111.5 105.4,-169.3 13.2,-20.3 27.4,-42.6 39.5,-62.8 36.5,-58.8 72,-117.6 108.5,-178.4 12.1,-20.3 25.3,-41.6 37.5,-61.8 33.4,-55.8 66.9,-112.5 100.3,-169.3 13.2,-21.3 25.4,-43.6 38.5,-64.9 33.5,-57.7 67.9,-116.5 101.4,-176.3 13.2,-21.3 25.3,-43.6 37.5,-64.9 37.5,-66.9 75,-133.8 113.5,-202.7 13.2,-23.3 25.3,-46.6 38.5,-69.9 39.5,-69.9 77,-140.9 115.5,-212.8 11.2,-21.3 22.3,-41.6 33.5,-62.9 34.5,-65.8 70.9,-132.7 106.4,-201.7 9.1,-17.2 17.2,-34.4 27.4,-51.7 38.5,-76 77,-153 116.5,-230 11.2,-23.3 22.3,-44.6 33.5,-66.9 38.5,-79.1 78,-159.1 116.5,-239.2 11.2,-22.3 22.3,-45.6 33.5,-68.9 39.5,-83.1 79,-167.2 118.5,-251.4 8.2,-17.2 16.3,-34.4 23.4,-50.6 37.5,-81.1 74,-162.2 110.4,-244.3 7.1,-16.2 14.2,-31.4 20.3,-46.6 40.5,-90.2 80.1,-180.4 117.6,-271.6 10.1,-22.3 19.2,-43.6 28.3,-64.9 38.6,-91.2 77.1,-183.4 114.6,-276.7 l 24.3,-59.8 c 38.5,-97.3 78,-196.6 115.5,-294.9 4.1,-9.1 7.1,-18.2 10.2,-26.4 37.5,-99.3 75,-197.6 111.5,-296.9 4,-14.2 9.1,-27.4 14.1,-41.6 37.5,-102.3 74,-205.7 109.5,-310.1 6.1,-18.2 12.2,-36.5 19.3,-54.7 35.4,-104.4 70.9,-210.8 104.3,-317.2 5.1,-14.2 9.2,-28.4 14.2,-42.6 63.9,-202.7 126.7,-407.4 185.5,-616.2 7.1,-24.3 14.2,-49.7 21.3,-75 3,-11.2 6.1,-22.3 9.1,-32.5 31.4,-115.5 61.8,-231 92.2,-347.6 v -4 c 1.1,-3.1 2.1,-9.2 3.1,-18.3 6.1,-28.4 15.2,-80 22.3,-121.6 -436.8,-438.8 -694.3,-745.9 -751,-814.9 0,0 0,0 -1,-1 -1.1,-1 -2.1,-2 -2.1,-3 -1,-1 -2,-1 -2,-1 -1,-2 -2,-4.1 -3,-5.1 -1.1,-2 -2.1,-3 -3.1,-4 284.8,161.1 570.6,320.2 856.4,476.3 108.5,-478.4 199.7,-970.9 268.6,-1475.6 0,0 0,2 0,6 0,0 18.3,604.1 -87.2,1582.1 8.2,3 19.3,8.1 30.5,13.2 1,0 1,1 1,1 56.7,26.3 141.9,64.9 151,69.9 273.6,147 546.3,289.9 814.8,428.7 1784.8,922.3 3406.4,1662.2 4268.9,2043.2 1,0 1,0 2,0 359.8,160.2 586.8,256.5 636.5,277.7 7.1,3.1 11.1,4.1 11.1,4.1 -2,-21.3 -3,-41.6 -4,-61.8 46.6,-448 278.7,-3474.3 -1259.8,-8258 0,0 0,0 1,1 1,1 1,1 1,2 8.2,10.1 16.3,21.3 24.4,32.5 6,6 11.1,12.1 17.2,18.2 1,2 3,4 5.1,6.1 3624.2,4534.4 2801.3,10217.1 2801.3,10217.1 -2726.3,-660.8 -4932.7,-2097 -6419.5,-3321.3 -322.3,-264.5 -611.2,-519.9 -863.5,-755 -26.4,-25.4 -191.6,-159.1 -278.7,-232.1 -0.2,-0.2 -0.3,-0.2 -0.5,-0.4 -342,2426.7 -1412.9,6529.4 -4643.4,9687.4 -18.2,-22.3 -388.2,-464.2 -894.9,-1236.5 0,0 0,0 0,-1 -4.1,-6 -7.1,-12.1 -11.2,-19.2 -13.2,-22.3 -26.3,-44.6 -39.5,-65.9 -43.6,-62.8 -84.1,-127.7 -122.6,-192.6 -64.9,-105.4 -128.7,-211.8 -190.6,-319.2 l 5.1,-13.2 c -16.2,-26.3 -32.4,-53.7 -47.6,-81.1 -36.5,-49.6 -72,-100.3 -89.2,-159.1 -30.4,-53.7 -59.8,-107.4 -89.2,-161.1 -61.8,-94.3 -121.6,-191.6 -160.1,-297 -1.1,-1 -2.1,-2 -2.1,-2 -36.5,-67.9 -70.9,-134.8 -106.4,-202.7 -1,-2 -2,-4.1 -3,-5.1 -40.6,-66.9 -78.1,-135.8 -106.4,-206.7 -931.5,-1831.4 -1488.9,-3497.6 -1801,-4961.1 l -21.3,-97.3 c -12.2,-58.8 -23.3,-118.6 -35.5,-179.4 -12.2,-62.8 -24.3,-125.7 -35.5,-189.5 -10.1,-47.7 -18.2,-95.3 -26.3,-142.9 -6.1,-32.5 -12.2,-64.9 -17.3,-98.4 -10.1,-56.7 -20.2,-114.5 -28.3,-171.2 -28.4,-172.3 -53.7,-341.6 -75,-497.7 -2.1,-16.2 -4.1,-32.4 -6.1,-48.6 -4.1,5.1 -8.1,10.1 -13.2,15.2 -4,5.1 -8.1,9.1 -12.1,14.2 -241.3,270.6 -503.8,540.2 -784.5,803.7 -1574.97,1473.6 -3788.46,2758.7 -6811.73,3001 0,0 -634.45,-6118.5 3487.45,-10725.9 1.01,-1 2.03,-2 4.06,-3 46.62,-42.6 96.28,-84.2 143.92,-125.7 81.08,-134.8 223.98,-221 344.59,-319.3 32.42,-82.1 121.61,-115.5 189.52,-162.1 -1.01,-30.4 -1.01,-60.8 -3.04,-91.3 0,0 -1.01,0 -2.03,0 -93.24,32.5 -3143.87,1079.4 -6420.52,1033.8 -452.02,-5 -908.1,-32.4 -1361.132,-86.1 141.887,-377.1 298.981,-748 468.235,-1113.9 95.273,-206.7 195.607,-411.5 298.987,-614.1 44.59,-89.2 91.21,-178.4 137.83,-266.6 290.88,-551.3 616.21,-1083.4 969.93,-1595.3 14.19,-20.2 28.37,-41.5 42.56,-61.8 252.36,-363.8 517.89,-717.5 795.6,-1062.1 438.84,-544.3 913.16,-1060.1 1417.89,-1544.6 280.73,-269.6 570.6,-530.1 868.56,-780.4 142.91,-122.6 288.85,-241.2 436.83,-356.7 280.73,-219 568.57,-428.7 859.44,-633.5 227.03,-150 452.03,-303 683.1,-445.9 C 7645.57,2410.6 7873.6,2264.7 8114.82,2138 9065.48,1612 10062.8,1167.1 11096.5,834.598 12129.3,499.203 13193.5,263 14268.8,127.199 15345.1,-10.6016 16432.6,-29.8984 17513,38 18593.4,108 19666.7,280.301 20713.6,555.898 22713.3,1084 24610.5,1982.9 26281.8,3191 c -268.6,39.6 -513.8,117.6 -704.4,184.5 -9.1,3 -20.2,7.1 -31.4,11.1 -159.1,-57.7 -307.1,-108.4 -460.1,-157.1 -186.5,-59.8 -363.9,-109.4 -536.2,-151 l -15.2,-24.3 -246.2,-54.7 c -19.3,-4.1 -38.6,-9.1 -57.8,-13.2 -1186.8,-648.6 -2453.7,-1145.3 -3763.1,-1472.6 -988.2,-247.3 -1999.7,-395.3 -3016.2,-449 -1016.6,-49.7 -2037.2,-18.2 -3043.6,124.7 -1006.4,139.8 -1998.6,375 -2959.4,699.3 -961.8,323.3 -1887.12,751 -2766.83,1252.7 -222.97,120.6 -433.78,261.4 -650.67,392.2 -140.88,90.2 -279.72,184.4 -417.57,278.7 -40.53,26.4 -80.06,53.7 -119.59,81.1 -30.4,21.3 -61.82,42.6 -93.24,63.8 -409.45,298 -813.84,603.1 -1193.9,937.5 l -1.01,1 c -514.86,442.9 -1000.33,917.3 -1451.34,1422 -223.98,248.3 -438.84,502.7 -644.59,765.2 -512.83,653.7 -983.09,1343.9 -1388.49,2068.5 -87.16,156.1 -172.29,313.2 -253.37,472.3 -32.43,61.8 -63.85,124.7 -95.27,187.5 83.1,-12.2 167.22,-25.3 251.35,-25.3 207.76,-40.6 418.57,-68.9 627.35,-102.4 1357.08,-238.2 2691.86,-605 3979,-1097.6 76.02,-27.4 152.03,-53.7 229.06,-82.1 9.11,-3 17.22,-7.1 25.33,-10.1 31.42,-12.2 62.84,-24.4 95.27,-37.5 171.29,-72 343.58,-145 516.89,-212.9 19.25,-156.1 92.22,-435.8 360.8,-742.9 345.6,-397.3 848.3,-621.2 1374.31,-638.5 294.91,-10.1 687.11,-14.2 1136.11,3.1 70,-37.5 140.9,-75 212.9,-112.5 81,-46.7 162.1,-97.3 250.3,-132.8 153,-100.3 311.1,-192.6 474.3,-276.7 5.1,-3 10.1,-6.1 15.2,-8.1 139.9,-90.2 282.8,-174.3 426.7,-256.4 135.8,-85.1 264.5,-183.5 414.5,-244.3 412.5,-286.8 843.2,-548.3 1263.9,-821.9 689.1,-414.5 1412.8,-775.3 2169.9,-1047 319.2,-119.6 642.5,-254.3 982,-304 115.6,-85.1 274.7,-95.3 412.5,-123.6 407.5,-111.5 826,-205.8 1248.7,-232.1 227,-75 475.3,-83.2 713.5,-79.1 91.2,-47.6 197.6,-41.6 295.9,-28.4 493.6,-58.8 996.3,-50.7 1491.9,-24.3 157.1,-5.1 314.2,12.2 471.3,24.3 271.6,22.3 543.2,50.7 811.8,92.3 209.8,33.4 419.6,61.8 627.3,99.3 l 8.1,28.4 c 46.7,1 94.3,2 141.9,2 253.4,53.7 504.8,117.6 757.1,173.3 l 16.2,25.3 c 246.3,48.7 489.6,114.5 728.7,190.6 231.1,72.9 459.2,156 685.2,240.2 22.3,-18.3 42.5,-36.5 63.8,-54.8 42.6,-15.2 85.2,-31.4 127.7,-45.6 228,-80 463.2,-147.9 705.4,-170.2 178.4,-19.3 357.8,0 537.2,-3.1 11.1,2 22.3,5.1 33.4,8.1 727.7,177.4 1068.2,870.6 1127,1001.4 6.1,14.1 9.2,21.2 9.2,21.2 l 5,57.8 c 20.3,151 28.4,302 25.4,454.1 437.8,273.6 848.3,557.4 1229.3,841.2 2269.3,1692.5 3525,3428.6 3525,3428.6 -321.3,227.1 -684.1,414.6 -1071.3,570.6 -243.2,97.3 -496.6,182.5 -755,255.4"
         style="display:inline;fill:#56cdba;fill-opacity:1;fill-rule:nonzero;stroke:none"
         transform="matrix(0.13333333,0,0,-0.13333333,0,4484.7333)" /><path
         id="path5-4"
         d="m 32908.1,20513.8 c -458.1,2093.9 -1327.7,4092.5 -2537.8,5855 -1208.1,1762.4 -2754.7,3288.8 -4528.3,4471.5 -1773.7,1184.8 -3773.3,2023 -5857.1,2451.7 -2083.7,428.7 -4243.5,455 -6332.3,85.1 C 11563.8,33007.2 9550.95,32228.8 7760.09,31101.8 5967.21,29977.8 4396.28,28507.3 3154.75,26800.5 1912.2,25093.8 1001.06,23149.9 490.258,21106.7 234.855,20085.1 80.8008,19039.1 26.0742,17989.1 c -12.164,-130.7 -13.1797,-262.5 -15.207,-393.2 l -7.08595,-394.3 c -9.12891,-262.4 0,-526 9.11325,-788.5 21.2891,-524.9 67.9063,-1048.9 138.8515,-1568.8 -63.8515,520.9 -103.371,1044.9 -117.5624,1569.9 -6.082,262.5 -12.1602,525 0,786.4 l 13.1758,393.3 c 3.0351,131.7 6.082,262.5 20.2617,393.2 67.9099,1045.9 235.1369,2085.8 502.6989,3099.3 535.13,2026 1464.51,3943.5 2717.19,5615.8 1250.67,1674.3 2822.61,3105.4 4602.31,4189.8 1779.71,1087.5 3767.18,1825.3 5818.48,2160.8 2051.4,335.5 4165.5,281.8 6190.5,-164.2 2026,-443.9 3960.7,-1285.1 5665.4,-2456.7 1706.8,-1170.6 3184.5,-2668.6 4328.7,-4386.5 1146.3,-1716.8 1957.1,-3652.6 2370.6,-5668.5 415.5,-2015.8 439.8,-4109.7 81.1,-6130.6 -199.7,-1120.9 -520,-2218.6 -951.7,-3269.6 255.4,-75 503.7,-159.1 737.8,-253.3 2,-1.1 4.1,-2.1 6.1,-3.1 432.8,1097.6 748,2239.9 938.5,3401.3 347.6,2119.3 291.9,4299.3 -167.2,6392.2"
         style="display:inline;fill:#56cdba;fill-opacity:1;fill-rule:nonzero;stroke:none"
         transform="matrix(0.13333333,0,0,-0.13333333,0,4484.7333)"
         sodipodi:nodetypes="cccssccsccccccccccccsccccccccsc" /></g><text
       xml:space="preserve"
       style="font-size:16.4784px;line-height:1.25;font-family:Hurricane;-inkscape-font-specification:'Hurricane, Normal';text-align:center;text-anchor:middle;fill:#424242;fill-opacity:1;stroke-width:0.264583"
       x="762.21161"
       y="180.46062"
       id="text2"
       inkscape:label="by rebeca"><tspan
         sodipodi:role="line"
         id="tspan2"
         style="font-style:normal;font-variant:normal;font-weight:normal;font-stretch:normal;font-family:Galada;-inkscape-font-specification:Galada;fill:#424242;fill-opacity:1;stroke-width:0.264583"
         x="762.21161"
         y="180.46062">by Rebeca</tspan></text><text
       xml:space="preserve"
       style="font-size:39.599px;line-height:1.25;font-family:sans-serif;text-align:center;text-anchor:middle;fill:#424242;fill-opacity:1;stroke-width:0.989255;stroke-dasharray:none"
       x="762.08417"
       y="153.06384"
       id="text1-2-3"
       inkscape:label="masaje y bienestar"><tspan
         sodipodi:role="line"
         id="tspan1-7-5"
         style="font-style:normal;font-variant:normal;font-weight:normal;font-stretch:normal;font-family:'Sassy Frass';-inkscape-font-specification:'Sassy Frass';fill:#424242;fill-opacity:1;stroke-width:0.989255;stroke-dasharray:none"
         x="762.08417"
         y="153.06384">Masaje y Bienestar</tspan></text></g></svg>
